<svg width="76" height="50" viewBox="0 0 76 50" fill="none" xmlns="http://www.w3.org/2000/svg">
<path d="M74.2168 14.4504H65.3299L62.8599 9.08308C60.3216 3.56485 54.2638 0 47.4253 0H28.5737C21.7367 0 15.6774 3.56485 13.1377 9.08308L10.6677 14.4504H1.7822C0.622899 14.4504 -0.22765 15.3974 0.0543821 16.3741L0.945008 19.4706C1.14243 20.1595 1.85493 20.6434 2.67282 20.6434H5.65197C3.65845 22.1568 2.37446 24.3566 2.37446 26.8364V33.0294C2.37446 35.1092 3.28884 36.9865 4.74947 38.4392V45.4154C4.74947 47.6952 6.87658 49.5441 9.49947 49.5441H14.2495C16.8724 49.5441 18.9995 47.6952 18.9995 45.4154V41.2867H56.9995V45.4154C56.9995 47.6952 59.1266 49.5441 61.7495 49.5441H66.4995C69.1224 49.5441 71.2496 47.6952 71.2496 45.4154V38.4392C72.7102 36.9877 73.6246 35.1105 73.6246 33.0294V26.8364C73.6246 24.3566 72.3406 22.1568 70.3485 20.6434H73.3277C74.1456 20.6434 74.8581 20.1595 75.0555 19.4706L75.9461 16.3741C76.2267 15.3974 75.3761 14.4504 74.2168 14.4504ZM21.9578 12.1499C23.04 9.79914 25.6599 8.25734 28.5737 8.25734H47.4253C50.3391 8.25734 52.9591 9.79914 54.0412 12.1499L56.9995 18.579H18.9995L21.9578 12.1499ZM14.2495 33.0036C11.3995 33.0036 9.49947 31.3573 9.49947 28.8878C9.49947 26.4183 11.3995 24.772 14.2495 24.772C17.0995 24.772 21.3745 28.4762 21.3745 30.9457C21.3745 33.4151 17.0995 33.0036 14.2495 33.0036ZM61.7495 33.0036C58.8995 33.0036 54.6245 33.4151 54.6245 30.9457C54.6245 28.4762 58.8995 24.772 61.7495 24.772C64.5995 24.772 66.4995 26.4183 66.4995 28.8878C66.4995 31.3573 64.5995 33.0036 61.7495 33.0036Z" fill="#FECD9D"/>
</svg>
