<svg width="63" height="40" viewBox="0 0 63 40" fill="none" xmlns="http://www.w3.org/2000/svg">
<path d="M31.5 8.27212C30.3408 8.28925 29.1901 8.46336 28.0831 8.78913C28.5952 9.64045 28.8678 10.6017 28.875 11.581C28.875 12.3414 28.7166 13.0944 28.4088 13.7969C28.1009 14.4994 27.6498 15.1378 27.081 15.6755C26.5123 16.2132 25.837 16.6397 25.0939 16.9307C24.3508 17.2217 23.5543 17.3715 22.75 17.3715C21.7141 17.3647 20.6974 17.1069 19.7969 16.6228C19.0864 18.9522 19.1692 21.434 20.0335 23.7164C20.8979 25.9989 22.5 27.9664 24.6128 29.3402C26.7257 30.7141 29.2422 31.4246 31.806 31.3712C34.3698 31.3178 36.8508 30.5032 38.8976 29.0427C40.9444 27.5822 42.4532 25.5499 43.2104 23.2337C43.9676 20.9174 43.9347 18.4347 43.1164 16.1371C42.2981 13.8395 40.7359 11.8436 38.651 10.432C36.5662 9.02045 34.0644 8.2648 31.5 8.27212ZM62.6194 18.3434C56.688 7.40251 44.9455 0 31.5 0C18.0545 0 6.3087 7.40768 0.380566 18.3445C0.130361 18.8124 0 19.3293 0 19.8536C0 20.3779 0.130361 20.8948 0.380566 21.3628C6.31198 32.3037 18.0545 39.7062 31.5 39.7062C44.9455 39.7062 56.6913 32.2985 62.6194 21.3617C62.8696 20.8938 63 20.3769 63 19.8526C63 19.3283 62.8696 18.8113 62.6194 18.3434ZM31.5 34.7429C20.7101 34.7429 10.8182 29.0558 5.47636 19.8531C10.8182 10.6504 20.709 4.96327 31.5 4.96327C42.291 4.96327 52.1818 10.6504 57.5236 19.8531C52.1828 29.0558 42.291 34.7429 31.5 34.7429Z" fill="#FECD9D"/>
</svg>
