<svg width="45" height="38" viewBox="0 0 45 38" fill="none" xmlns="http://www.w3.org/2000/svg">
<path d="M11.25 0C8.15625 0 5.4 1.26005 3.31875 3.2323C1.29375 5.20456 0 7.88901 0 10.957C0 13.9701 1.29375 16.6546 3.31875 18.6816L22.5 37.3632L41.6812 18.6816C43.7062 16.7094 45 14.0249 45 10.957C45 7.9438 43.7062 5.25934 41.6812 3.2323C39.6562 1.26005 36.9 0 33.75 0C30.6562 0 27.9 1.26005 25.8188 3.2323C23.7938 5.20456 22.5 7.88901 22.5 10.957C22.5 7.9438 21.2063 5.25934 19.1812 3.2323C17.1562 1.26005 14.4 0 11.25 0V0Z" fill="#FECD9D"/>
</svg>
