<svg width="40" height="44" viewBox="0 0 40 44" fill="none" xmlns="http://www.w3.org/2000/svg">
<path d="M6.83069 17.0281C9.20038 23.2756 13.9106 28.9378 20.1991 33.1673L26.4078 29.9424C27.1697 29.5467 28.1756 29.5671 28.9769 29.9742C31.5465 31.249 34.4018 32.2353 37.4092 32.8449C38.7432 33.1153 39.6561 34.2174 39.4379 35.294L38.0532 42.1254C37.8349 43.202 36.565 43.8617 35.231 43.5913C12.4569 38.9751 -2.98075 20.3378 0.744839 1.95745C0.963059 0.880849 2.23301 0.221223 3.56697 0.491607L12.0557 2.21223C13.3897 2.48262 14.3026 3.58469 14.0844 4.66129C13.5884 7.10809 13.5973 9.55529 14.0503 11.9295C14.1783 12.6688 13.8294 13.3928 13.0393 13.8033L6.83069 17.0281Z" fill="#FECD9D"/>
</svg>
