<svg width="40" height="38" viewBox="0 0 40 38" fill="none" xmlns="http://www.w3.org/2000/svg">
<path d="M25.5429 0.014404C24.4571 0.12271 23.4286 0.8267 22.8571 1.85561C22.1143 3.26359 16.6286 13.7151 15.5429 14.744C14.4571 15.7729 13.0286 16.2603 11.4286 16.2603V37.9215H31.4286C32.6286 37.9215 33.6571 37.2175 34.1143 36.2428C34.1143 36.2428 40 20.4843 40 18.968C40 17.4517 38.7429 16.2603 37.1429 16.2603H28.5714C26.9714 16.2603 25.7143 14.9065 25.7143 13.5527C25.7143 12.1988 27.9429 4.99648 28.4 3.5885C28.8571 2.18053 28.1143 0.66424 26.6286 0.176863C26.2286 0.068557 25.9429 -0.0397491 25.5429 0.014404ZM0 16.2603V37.9215H5.71429V16.2603H0Z" fill="#FECD9D"/>
</svg>
