<svg width="60" height="60" viewBox="0 0 60 60" fill="none" xmlns="http://www.w3.org/2000/svg">
<circle cx="30" cy="30" r="30" fill="white"/>
<circle cx="30" cy="30" r="22" fill="#D08A45"/>
<g clip-path="url(#clip0_34_117)">
<path d="M41.4992 24.2028C41.3601 23.7043 41.0948 23.2501 40.7288 22.8842C40.3629 22.5182 39.9087 22.2529 39.4102 22.1138C37.5402 21.6128 30.0102 21.6128 30.0102 21.6128C30.0102 21.6128 22.5012 21.6028 20.6112 22.1138C20.1128 22.2531 19.6587 22.5187 19.2929 22.8848C18.9272 23.2509 18.662 23.7052 18.5232 24.2038C18.1684 26.1186 17.9933 28.0624 18.0002 30.0098C17.9946 31.9502 18.1697 33.8869 18.5232 35.7948C18.6622 36.2932 18.9274 36.7473 19.2931 37.1132C19.6589 37.4792 20.1129 37.7446 20.6112 37.8838C22.4802 38.3858 30.0112 38.3858 30.0112 38.3858C30.0112 38.3858 37.5192 38.3858 39.4102 37.8838C39.9088 37.7446 40.3631 37.4791 40.729 37.113C41.095 36.7469 41.3603 36.2925 41.4992 35.7938C41.8449 33.8855 42.0123 31.9491 41.9992 30.0098C42.0138 28.0625 41.8464 26.118 41.4992 24.2018V24.2028ZM27.6082 33.6028V26.4068L33.8742 30.0108L27.6082 33.6028Z" fill="white"/>
</g>
<defs>
<clipPath id="clip0_34_117">
<rect width="24" height="24" fill="white" transform="translate(18 18)"/>
</clipPath>
</defs>
</svg>
